<svg xmlns="http://www.w3.org/2000/svg" xmlns:xlink="http://www.w3.org/1999/xlink" width="1080" zoomAndPan="magnify" viewBox="0 0 810 809.999993" height="1080" preserveAspectRatio="xMidYMid meet" version="1.0"><defs><filter x="0%" y="0%" width="100%" height="100%" id="id1"><feColorMatrix values="0 0 0 0 1 0 0 0 0 1 0 0 0 0 1 0 0 0 1 0" color-interpolation-filters="sRGB"/></filter><g/><mask id="id2"><g filter="url(#id1)"><rect x="-81" width="972" fill="#000000" y="-80.999999" height="971.999992" fill-opacity="0.3098"/></g></mask><clipPath id="id3"><path d="M 154 130 L 215.566406 130 L 215.566406 201.253906 L 154 201.253906 Z M 154 130 " clip-rule="nonzero"/></clipPath><clipPath id="id4"><path d="M 151.066406 125.769531 L 213 125.769531 L 213 164 L 151.066406 164 Z M 151.066406 125.769531 " clip-rule="nonzero"/></clipPath><clipPath id="id5"><rect x="0" width="216" y="0" height="202"/></clipPath><clipPath id="id6"><path d="M 358.15625 514.695312 L 398.765625 514.695312 L 398.765625 552.4375 L 358.15625 552.4375 Z M 358.15625 514.695312 " clip-rule="nonzero"/></clipPath><clipPath id="id7"><path d="M 547 197.117188 L 669 197.117188 L 669 340 L 547 340 Z M 547 197.117188 " clip-rule="nonzero"/></clipPath><clipPath id="id8"><path d="M 361.144531 443 L 451 443 L 451 548.277344 L 361.144531 548.277344 Z M 361.144531 443 " clip-rule="nonzero"/></clipPath><clipPath id="id9"><path d="M 365 253 L 676.769531 253 L 676.769531 493 L 365 493 Z M 365 253 " clip-rule="nonzero"/></clipPath><clipPath id="id10"><path d="M 141 197.117188 L 263 197.117188 L 263 340 L 141 340 Z M 141 197.117188 " clip-rule="nonzero"/></clipPath><clipPath id="id11"><path d="M 359 443 L 449 443 L 449 548.277344 L 359 548.277344 Z M 359 443 " clip-rule="nonzero"/></clipPath><clipPath id="id12"><path d="M 133.226562 253 L 445 253 L 445 493 L 133.226562 493 Z M 133.226562 253 " clip-rule="nonzero"/></clipPath><clipPath id="id13"><path d="M 372.933594 456.863281 L 436.957031 456.863281 L 436.957031 517.0625 L 372.933594 517.0625 Z M 372.933594 456.863281 " clip-rule="nonzero"/></clipPath><clipPath id="id14"><path d="M 383.0625 464 L 427 464 L 427 516.980469 L 383.0625 516.980469 Z M 383.0625 464 " clip-rule="nonzero"/></clipPath><clipPath id="id15"><path d="M 398 515 L 412 515 L 412 533 L 398 533 Z M 398 515 " clip-rule="nonzero"/></clipPath><clipPath id="id16"><path d="M 398.128906 517.679688 L 409.464844 515.949219 L 411.703125 530.585938 L 400.371094 532.320312 Z M 398.128906 517.679688 " clip-rule="nonzero"/></clipPath><clipPath id="id17"><path d="M 401 527 L 413 527 L 413 540 L 401 540 Z M 401 527 " clip-rule="nonzero"/></clipPath><clipPath id="id18"><path d="M 401.160156 535.570312 L 408.667969 527.546875 L 412.855469 531.464844 L 405.347656 539.488281 Z M 401.160156 535.570312 " clip-rule="nonzero"/></clipPath><clipPath id="id19"><path d="M 371 497 L 382 497 L 382 510 L 371 510 Z M 371 497 " clip-rule="nonzero"/></clipPath><clipPath id="id20"><path d="M 371.554688 499.863281 L 377.070312 497 L 381.910156 506.332031 L 376.394531 509.191406 Z M 371.554688 499.863281 " clip-rule="nonzero"/></clipPath><clipPath id="id21"><path d="M 382 511 L 393 511 L 393 522 L 382 522 Z M 382 511 " clip-rule="nonzero"/></clipPath><clipPath id="id22"><path d="M 382.355469 516.160156 L 386.078125 511.800781 L 392.253906 517.078125 L 388.53125 521.4375 Z M 382.355469 516.160156 " clip-rule="nonzero"/></clipPath><clipPath id="id23"><path d="M 378 509 L 390 509 L 390 520 L 378 520 Z M 378 509 " clip-rule="nonzero"/></clipPath><clipPath id="id24"><path d="M 377.082031 511.210938 L 380.796875 507.492188 L 390.933594 517.628906 L 387.214844 521.34375 Z M 377.082031 511.210938 " clip-rule="nonzero"/></clipPath></defs><rect x="-81" width="972" fill="#ffffff" y="-80.999999" height="971.999992" fill-opacity="1"/><rect x="-81" width="972" fill="#39a2db" y="-80.999999" height="971.999992" fill-opacity="1"/><rect x="-81" width="972" fill="#ffffff" y="-80.999999" height="971.999992" fill-opacity="1"/><rect x="-81" width="972" fill="#39a2db" y="-80.999999" height="971.999992" fill-opacity="1"/><g fill="#073944" fill-opacity="1"><g transform="translate(171.397128, 555.946057)"><g><path d="M 3.03125 0 L 31 0 L 31 -10.839844 L 15.792969 -10.839844 L 15.792969 -41.722656 L 3.03125 -41.722656 Z M 3.03125 0 "/></g></g></g><g fill="#073944" fill-opacity="1"><g transform="translate(202.21842, 555.946057)"><g><path d="M 25.054688 1.457031 C 39.273438 1.457031 48.539062 -7.402344 48.539062 -20.859375 C 48.539062 -34.378906 39.273438 -43.179688 25.054688 -43.179688 C 10.898438 -43.179688 1.574219 -34.378906 1.574219 -20.859375 C 1.574219 -7.402344 10.898438 1.457031 25.054688 1.457031 Z M 25.054688 -9.382812 C 18.53125 -9.382812 14.335938 -13.925781 14.335938 -20.859375 C 14.335938 -27.855469 18.53125 -32.398438 25.054688 -32.398438 C 31.582031 -32.398438 35.777344 -27.855469 35.777344 -20.859375 C 35.777344 -13.925781 31.582031 -9.382812 25.054688 -9.382812 Z M 25.054688 -9.382812 "/></g></g></g><g fill="#073944" fill-opacity="1"><g transform="translate(251.159868, 555.946057)"><g><path d="M 20.804688 1.457031 C 32.28125 1.457031 40.5 -3.613281 40.5 -12.9375 C 40.5 -20.335938 35.953125 -24.300781 25.699219 -25.753906 L 20.277344 -26.628906 C 16.375 -27.269531 14.683594 -28.320312 14.683594 -30.300781 C 14.683594 -32.574219 16.78125 -34.148438 19.988281 -34.148438 C 23.425781 -34.148438 26.046875 -32.050781 26.511719 -28.609375 L 37.703125 -31.058594 C 36.710938 -38.457031 29.484375 -43.179688 20.277344 -43.179688 C 9.964844 -43.179688 2.273438 -37.933594 2.273438 -29.308594 C 2.273438 -22.203125 6.699219 -18.355469 16.839844 -16.605469 L 22.203125 -15.734375 C 26.398438 -14.917969 28.203125 -13.753906 28.203125 -11.769531 C 28.203125 -9.265625 25.582031 -7.574219 21.445312 -7.574219 C 16.78125 -7.574219 13.402344 -10.140625 12.761719 -14.394531 L 1.339844 -12.238281 C 2.273438 -2.972656 10.082031 1.457031 20.804688 1.457031 Z M 20.804688 1.457031 "/></g></g></g><g fill="#073944" fill-opacity="1"><g transform="translate(291.186891, 555.946057)"><g><path d="M 12.703125 0 L 25.464844 0 L 25.464844 -30.941406 L 37.175781 -30.941406 L 37.175781 -41.722656 L 1.050781 -41.722656 L 1.050781 -30.941406 L 12.703125 -30.941406 Z M 12.703125 0 "/></g></g></g><g mask="url(#id2)"><g transform="matrix(1, 0, 0, 1, 195, 370)"><g clip-path="url(#id5)"><g clip-path="url(#id3)"><path fill="#073944" d="M 185.238281 130.195312 C 168.441406 130.195312 154.777344 143.839844 154.777344 160.613281 C 154.777344 167.511719 157.152344 174.265625 161.460938 179.625 C 162.15625 180.496094 162.910156 181.335938 163.699219 182.121094 L 181.148438 199.550781 C 182.242188 200.640625 183.695312 201.242188 185.238281 201.242188 C 186.78125 201.242188 188.234375 200.640625 189.328125 199.546875 L 206.777344 182.121094 C 207.566406 181.332031 208.320312 180.492188 209.007812 179.632812 C 213.320312 174.265625 215.699219 167.511719 215.699219 160.613281 C 215.699219 143.839844 202.03125 130.195312 185.238281 130.195312 Z M 204.816406 176.28125 C 204.246094 176.992188 203.628906 177.683594 202.980469 178.332031 L 185.535156 195.753906 C 185.433594 195.855469 185.316406 195.878906 185.238281 195.878906 C 185.160156 195.878906 185.042969 195.855469 184.945312 195.753906 L 167.496094 178.328125 C 166.847656 177.683594 166.230469 176.992188 165.65625 176.273438 C 162.050781 171.792969 160.148438 166.375 160.148438 160.613281 C 160.148438 146.796875 171.402344 135.558594 185.238281 135.558594 C 199.070312 135.558594 210.328125 146.796875 210.328125 160.613281 C 210.328125 166.378906 208.421875 171.792969 204.816406 176.28125 Z M 204.816406 176.28125 " fill-opacity="1" fill-rule="nonzero"/></g><path fill="#073944" d="M 185.238281 144.445312 C 176.3125 144.445312 169.050781 151.699219 169.050781 160.613281 C 169.050781 169.527344 176.3125 176.777344 185.238281 176.777344 C 194.164062 176.777344 201.425781 169.527344 201.425781 160.613281 C 201.425781 151.699219 194.164062 144.445312 185.238281 144.445312 Z M 185.238281 171.414062 C 179.273438 171.414062 174.421875 166.566406 174.421875 160.613281 C 174.421875 154.65625 179.273438 149.808594 185.238281 149.808594 C 191.203125 149.808594 196.054688 154.65625 196.054688 160.613281 C 196.054688 166.566406 191.203125 171.414062 185.238281 171.414062 Z M 185.238281 171.414062 " fill-opacity="1" fill-rule="nonzero"/><g clip-path="url(#id4)"><path fill="#b5b1ba" d="M 144.734375 157.929688 L 37.535156 157.929688 C 20.339844 157.929688 6.347656 143.960938 6.347656 126.789062 C 6.347656 109.613281 20.339844 95.644531 37.535156 95.644531 L 165.09375 95.644531 C 191.246094 95.644531 212.519531 74.398438 212.519531 48.285156 C 212.519531 22.171875 191.246094 0.929688 165.09375 0.929688 L 97.746094 0.929688 C 96.261719 0.929688 95.058594 2.128906 95.058594 3.609375 C 95.058594 5.089844 96.261719 6.292969 97.746094 6.292969 L 165.09375 6.292969 C 188.28125 6.292969 207.148438 25.128906 207.148438 48.285156 C 207.148438 71.441406 188.28125 90.28125 165.09375 90.28125 L 37.535156 90.28125 C 17.378906 90.28125 0.976562 106.65625 0.976562 126.789062 C 0.976562 146.917969 17.378906 163.292969 37.535156 163.292969 L 144.734375 163.292969 C 146.21875 163.292969 147.417969 162.09375 147.417969 160.613281 C 147.417969 159.132812 146.214844 157.929688 144.734375 157.929688 Z M 144.734375 157.929688 " fill-opacity="1" fill-rule="nonzero"/></g></g></g></g><g clip-path="url(#id6)"><path fill="#39a2db" d="M 378.460938 514.695312 C 367.246094 514.695312 358.15625 523.144531 358.15625 533.566406 C 358.15625 543.988281 367.246094 552.4375 378.460938 552.4375 C 389.675781 552.4375 398.765625 543.988281 398.765625 533.566406 C 398.765625 523.144531 389.675781 514.695312 378.460938 514.695312 " fill-opacity="1" fill-rule="nonzero"/></g><g fill="#073944" fill-opacity="1"><g transform="translate(450.413082, 555.946057)"><g><path d="M 3.03125 0 L 15.792969 0 L 15.792969 -14.160156 L 29.308594 -14.160156 L 29.308594 -23.601562 L 15.792969 -23.601562 L 15.792969 -30.941406 L 32.75 -30.941406 L 32.75 -41.722656 L 3.03125 -41.722656 Z M 3.03125 0 "/></g></g></g><g fill="#073944" fill-opacity="1"><g transform="translate(482.924042, 555.946057)"><g><path d="M 25.054688 1.457031 C 39.273438 1.457031 48.539062 -7.402344 48.539062 -20.859375 C 48.539062 -34.378906 39.273438 -43.179688 25.054688 -43.179688 C 10.898438 -43.179688 1.574219 -34.378906 1.574219 -20.859375 C 1.574219 -7.402344 10.898438 1.457031 25.054688 1.457031 Z M 25.054688 -9.382812 C 18.53125 -9.382812 14.335938 -13.925781 14.335938 -20.859375 C 14.335938 -27.855469 18.53125 -32.398438 25.054688 -32.398438 C 31.582031 -32.398438 35.777344 -27.855469 35.777344 -20.859375 C 35.777344 -13.925781 31.582031 -9.382812 25.054688 -9.382812 Z M 25.054688 -9.382812 "/></g></g></g><g fill="#073944" fill-opacity="1"><g transform="translate(531.86549, 555.946057)"><g><path d="M 22.433594 1.457031 C 34.90625 1.457031 42.1875 -5.128906 42.1875 -16.316406 L 42.1875 -41.722656 L 29.425781 -41.722656 L 29.425781 -16.78125 C 29.425781 -12.179688 26.863281 -9.382812 22.433594 -9.382812 C 18.003906 -9.382812 15.382812 -12.296875 15.382812 -16.78125 L 15.382812 -41.722656 L 2.679688 -41.722656 L 2.679688 -16.316406 C 2.679688 -5.128906 9.964844 1.457031 22.433594 1.457031 Z M 22.433594 1.457031 "/></g></g></g><g fill="#073944" fill-opacity="1"><g transform="translate(575.563154, 555.946057)"><g><path d="M 3.03125 0 L 14.859375 0 L 14.859375 -26.6875 L 14.976562 -26.6875 L 29.660156 0 L 44.109375 0 L 44.109375 -41.722656 L 32.28125 -41.722656 L 32.28125 -14.976562 L 32.164062 -14.976562 L 17.480469 -41.722656 L 3.03125 -41.722656 Z M 3.03125 0 "/></g></g></g><g fill="#073944" fill-opacity="1"><g transform="translate(621.533126, 555.946057)"><g><path d="M 3.03125 0 L 21.269531 0 C 35.953125 0 44.167969 -7.457031 44.167969 -20.859375 C 44.167969 -34.261719 35.953125 -41.722656 21.269531 -41.722656 L 3.03125 -41.722656 Z M 15.324219 -9.90625 L 15.324219 -31.816406 L 21.269531 -31.816406 C 27.796875 -31.816406 31.464844 -27.910156 31.464844 -20.859375 C 31.464844 -13.808594 27.796875 -9.90625 21.269531 -9.90625 Z M 15.324219 -9.90625 "/></g></g></g><g clip-path="url(#id7)"><path fill="#073944" d="M 651.125 300.597656 L 615.503906 336.203125 C 613.5625 338.140625 610.984375 339.207031 608.242188 339.207031 C 605.5 339.207031 602.921875 338.140625 600.976562 336.199219 L 565.355469 300.597656 C 563.789062 299.03125 562.292969 297.359375 560.914062 295.636719 C 552.324219 284.945312 547.59375 271.488281 547.59375 257.738281 C 547.597656 224.320312 574.804688 197.132812 608.242188 197.132812 C 641.683594 197.132812 668.886719 224.320312 668.886719 257.738281 C 668.886719 271.488281 664.15625 284.945312 655.574219 295.628906 C 654.191406 297.363281 652.695312 299.035156 651.125 300.597656 Z M 608.242188 205.015625 C 579.152344 205.015625 555.488281 228.667969 555.484375 257.742188 C 555.484375 269.871094 559.488281 281.269531 567.070312 290.707031 C 568.273438 292.210938 569.574219 293.664062 570.933594 295.023438 L 606.550781 330.621094 C 607.457031 331.527344 609.027344 331.523438 609.929688 330.625 L 645.550781 295.023438 C 646.910156 293.664062 648.210938 292.214844 649.417969 290.699219 C 656.992188 281.273438 661 269.875 661 257.742188 C 661 228.667969 637.332031 205.015625 608.242188 205.015625 Z M 608.242188 205.015625 " fill-opacity="1" fill-rule="nonzero"/></g><path fill="#073944" d="M 608.242188 289.230469 C 590.871094 289.230469 576.734375 275.105469 576.734375 257.742188 C 576.734375 240.378906 590.871094 226.253906 608.242188 226.253906 C 625.617188 226.253906 639.75 240.378906 639.75 257.742188 C 639.75 275.105469 625.617188 289.230469 608.242188 289.230469 Z M 608.242188 234.136719 C 595.21875 234.136719 584.625 244.726562 584.625 257.742188 C 584.625 270.757812 595.21875 281.34375 608.242188 281.34375 C 621.265625 281.34375 631.863281 270.757812 631.863281 257.742188 C 631.863281 244.726562 621.265625 234.136719 608.242188 234.136719 Z M 608.242188 234.136719 " fill-opacity="1" fill-rule="nonzero"/><g clip-path="url(#id8)"><path fill="#073944" d="M 405.910156 443.820312 C 430.582031 443.820312 450.65625 463.878906 450.65625 488.535156 C 450.65625 498.679688 447.164062 508.609375 440.835938 516.488281 C 439.8125 517.765625 438.707031 519 437.550781 520.15625 L 411.917969 545.773438 C 410.3125 547.375 408.179688 548.257812 405.910156 548.257812 C 403.644531 548.257812 401.511719 547.375 399.902344 545.769531 L 374.273438 520.15625 C 373.109375 518.996094 372.007812 517.761719 370.996094 516.496094 C 364.660156 508.609375 361.167969 498.679688 361.167969 488.535156 C 361.167969 463.878906 381.242188 443.820312 405.910156 443.820312 Z M 377.152344 511.570312 C 377.988281 512.613281 378.894531 513.628906 379.851562 514.582031 L 405.476562 540.195312 C 405.625 540.34375 405.796875 540.375 405.910156 540.375 C 406.027344 540.375 406.195312 540.34375 406.34375 540.195312 L 431.972656 514.578125 C 432.925781 513.628906 433.832031 512.617188 434.675781 511.558594 C 439.96875 504.972656 442.765625 497.007812 442.765625 488.535156 C 442.765625 468.226562 426.234375 451.703125 405.910156 451.703125 C 385.589844 451.703125 369.058594 468.226562 369.058594 488.535156 C 369.058594 497.011719 371.855469 504.972656 377.152344 511.570312 Z M 377.152344 511.570312 " fill-opacity="1" fill-rule="nonzero"/></g><path fill="#073944" d="M 405.910156 464.773438 C 419.023438 464.773438 429.691406 475.433594 429.691406 488.535156 C 429.691406 501.636719 419.023438 512.300781 405.910156 512.300781 C 392.800781 512.300781 382.132812 501.640625 382.132812 488.535156 C 382.132812 475.433594 392.800781 464.773438 405.910156 464.773438 Z M 405.910156 504.414062 C 414.671875 504.414062 421.800781 497.289062 421.800781 488.535156 C 421.800781 479.777344 414.671875 472.65625 405.910156 472.65625 C 397.148438 472.65625 390.023438 479.777344 390.023438 488.535156 C 390.023438 497.292969 397.152344 504.414062 405.910156 504.414062 Z M 405.910156 504.414062 " fill-opacity="1" fill-rule="nonzero"/><g clip-path="url(#id9)"><path fill="#eff4f7" d="M 465.40625 484.59375 L 622.867188 484.59375 C 648.128906 484.59375 668.675781 464.054688 668.675781 438.8125 C 668.675781 413.570312 648.128906 393.03125 622.867188 393.03125 L 435.5 393.03125 C 397.089844 393.03125 365.839844 361.800781 365.839844 323.417969 C 365.839844 285.03125 397.085938 253.800781 435.5 253.800781 L 534.425781 253.800781 C 536.605469 253.800781 538.371094 255.566406 538.371094 257.742188 C 538.371094 259.917969 536.605469 261.683594 534.425781 261.683594 L 435.5 261.683594 C 401.4375 261.683594 373.726562 289.378906 373.726562 323.417969 C 373.726562 357.457031 401.4375 385.148438 435.5 385.148438 L 622.867188 385.148438 C 652.476562 385.148438 676.566406 409.222656 676.566406 438.8125 C 676.566406 468.402344 652.476562 492.476562 622.867188 492.476562 L 465.40625 492.476562 C 463.226562 492.476562 461.460938 490.714844 461.460938 488.535156 C 461.460938 486.359375 463.230469 484.59375 465.40625 484.59375 Z M 465.40625 484.59375 " fill-opacity="1" fill-rule="nonzero"/></g><g clip-path="url(#id10)"><path fill="#073944" d="M 158.871094 300.597656 L 194.492188 336.203125 C 196.433594 338.140625 199.015625 339.207031 201.757812 339.207031 C 204.5 339.207031 207.078125 338.140625 209.023438 336.199219 L 244.640625 300.597656 C 246.210938 299.03125 247.707031 297.359375 249.082031 295.636719 C 257.671875 284.945312 262.402344 271.488281 262.402344 257.738281 C 262.398438 224.320312 235.195312 197.132812 201.753906 197.132812 C 168.316406 197.132812 141.109375 224.320312 141.109375 257.738281 C 141.109375 271.488281 145.839844 284.945312 154.421875 295.628906 C 155.808594 297.363281 157.304688 299.035156 158.871094 300.597656 Z M 201.753906 205.015625 C 230.84375 205.015625 254.511719 228.667969 254.511719 257.742188 C 254.511719 269.871094 250.507812 281.269531 242.925781 290.707031 C 241.722656 292.210938 240.425781 293.664062 239.0625 295.023438 L 203.445312 330.621094 C 202.542969 331.527344 200.96875 331.523438 200.070312 330.625 L 164.449219 295.023438 C 163.089844 293.664062 161.789062 292.214844 160.582031 290.699219 C 153.003906 281.273438 149 269.875 149 257.742188 C 149 228.667969 172.664062 205.015625 201.753906 205.015625 Z M 201.753906 205.015625 " fill-opacity="1" fill-rule="nonzero"/></g><path fill="#073944" d="M 201.753906 289.230469 C 219.128906 289.230469 233.261719 275.105469 233.261719 257.742188 C 233.261719 240.378906 219.128906 226.253906 201.753906 226.253906 C 184.382812 226.253906 170.246094 240.378906 170.246094 257.742188 C 170.246094 275.105469 184.378906 289.230469 201.753906 289.230469 Z M 201.753906 234.136719 C 214.777344 234.136719 225.375 244.726562 225.375 257.742188 C 225.375 270.757812 214.777344 281.34375 201.753906 281.34375 C 188.730469 281.34375 178.136719 270.757812 178.136719 257.742188 C 178.136719 244.726562 188.730469 234.136719 201.753906 234.136719 Z M 201.753906 234.136719 " fill-opacity="1" fill-rule="nonzero"/><g clip-path="url(#id11)"><path fill="#073944" d="M 404.085938 443.820312 C 379.414062 443.820312 359.34375 463.878906 359.34375 488.535156 C 359.34375 498.679688 362.832031 508.609375 369.164062 516.488281 C 370.183594 517.765625 371.289062 519 372.445312 520.15625 L 398.078125 545.773438 C 399.683594 547.375 401.820312 548.257812 404.085938 548.257812 C 406.355469 548.257812 408.488281 547.375 410.097656 545.769531 L 435.726562 520.15625 C 436.886719 518.996094 437.992188 517.761719 439 516.496094 C 445.339844 508.609375 448.828125 498.679688 448.828125 488.535156 C 448.828125 463.878906 428.757812 443.820312 404.085938 443.820312 Z M 432.84375 511.570312 C 432.007812 512.613281 431.101562 513.628906 430.148438 514.582031 L 404.523438 540.195312 C 404.371094 540.34375 404.203125 540.375 404.085938 540.375 C 403.972656 540.375 403.800781 540.34375 403.65625 540.195312 L 378.023438 514.578125 C 377.074219 513.628906 376.167969 512.617188 375.320312 511.558594 C 370.03125 504.972656 367.234375 497.007812 367.234375 488.535156 C 367.234375 468.226562 383.765625 451.703125 404.085938 451.703125 C 424.40625 451.703125 440.9375 468.226562 440.941406 488.535156 C 440.941406 497.011719 438.144531 504.972656 432.84375 511.570312 Z M 432.84375 511.570312 " fill-opacity="1" fill-rule="nonzero"/></g><path fill="#073944" d="M 404.085938 464.773438 C 390.976562 464.773438 380.308594 475.433594 380.308594 488.535156 C 380.308594 501.636719 390.976562 512.300781 404.085938 512.300781 C 417.195312 512.300781 427.863281 501.640625 427.863281 488.535156 C 427.863281 475.433594 417.195312 464.773438 404.085938 464.773438 Z M 404.085938 504.414062 C 395.324219 504.414062 388.199219 497.289062 388.199219 488.535156 C 388.199219 479.777344 395.324219 472.65625 404.085938 472.65625 C 412.847656 472.65625 419.976562 479.777344 419.976562 488.535156 C 419.976562 497.292969 412.847656 504.414062 404.085938 504.414062 Z M 404.085938 504.414062 " fill-opacity="1" fill-rule="nonzero"/><g clip-path="url(#id12)"><path fill="#eff4f7" d="M 344.589844 484.59375 L 187.128906 484.59375 C 161.871094 484.59375 141.320312 464.054688 141.320312 438.8125 C 141.320312 413.570312 161.871094 393.03125 187.128906 393.03125 L 374.5 393.03125 C 412.910156 393.03125 444.160156 361.800781 444.160156 323.417969 C 444.160156 285.03125 412.910156 253.800781 374.5 253.800781 L 275.570312 253.800781 C 273.390625 253.800781 271.625 255.566406 271.625 257.742188 C 271.625 259.917969 273.390625 261.683594 275.570312 261.683594 L 374.5 261.683594 C 408.558594 261.683594 436.269531 289.378906 436.269531 323.417969 C 436.269531 357.457031 408.558594 385.148438 374.5 385.148438 L 187.128906 385.148438 C 157.519531 385.148438 133.429688 409.222656 133.429688 438.8125 C 133.429688 468.402344 157.519531 492.476562 187.128906 492.476562 L 344.589844 492.476562 C 346.769531 492.476562 348.535156 490.714844 348.535156 488.535156 C 348.535156 486.359375 346.769531 484.59375 344.589844 484.59375 Z M 344.589844 484.59375 " fill-opacity="1" fill-rule="nonzero"/></g><g clip-path="url(#id13)"><path fill="#39a2db" d="M 404.945312 456.863281 C 387.265625 456.863281 372.933594 470.339844 372.933594 486.964844 C 372.933594 503.585938 387.265625 517.0625 404.945312 517.0625 C 422.625 517.0625 436.957031 503.585938 436.957031 486.964844 C 436.957031 470.339844 422.625 456.863281 404.945312 456.863281 " fill-opacity="1" fill-rule="nonzero"/></g><g clip-path="url(#id14)"><path fill="#073944" d="M 385.351562 509.25 C 387.078125 512.210938 389.707031 514.433594 393.070312 515.746094 C 395.164062 516.570312 397.382812 516.980469 399.722656 516.980469 C 400.667969 516.980469 401.652344 516.898438 402.636719 516.773438 C 406.414062 516.28125 409.824219 514.800781 412.820312 512.375 C 412.859375 512.335938 412.941406 512.292969 412.984375 512.253906 C 412.984375 512.253906 414.832031 514.390625 415.53125 515.253906 C 415.816406 515.625 416.1875 515.789062 416.636719 515.789062 C 418.566406 515.789062 424.765625 515.789062 424.765625 515.789062 C 425.835938 515.789062 426.246094 515.214844 426.328125 514.964844 C 426.449219 514.71875 426.613281 514.019531 425.917969 513.199219 L 418.8125 505.058594 C 419.636719 503.578125 420.25 501.976562 420.703125 500.085938 C 421.074219 498.605469 421.277344 497.042969 421.441406 495.070312 L 424.4375 495.070312 C 425.792969 495.070312 426.902344 493.957031 426.902344 492.601562 L 426.902344 489.148438 C 426.902344 487.792969 425.792969 486.683594 424.4375 486.683594 L 415.570312 486.683594 C 414.214844 486.683594 413.109375 487.792969 413.109375 489.148438 C 413.109375 490.21875 413.023438 491.574219 413.023438 492.398438 C 413.023438 494.78125 412.367188 497.742188 412.328125 497.863281 L 405.71875 490.421875 C 407.238281 489.476562 409.042969 488.203125 410.5625 486.519531 C 413.519531 483.269531 414.667969 479.363281 413.929688 474.882812 C 413.3125 470.855469 411.054688 467.855469 407.238281 465.960938 C 403.910156 464.316406 400.214844 463.949219 396.355469 464.851562 C 393.359375 465.59375 390.9375 467.195312 389.171875 469.539062 C 387.816406 471.308594 387.035156 473.445312 386.75 475.828125 C 386.503906 478.296875 386.789062 480.515625 387.652344 482.53125 C 388.269531 483.929688 389.128906 485.285156 390.484375 486.929688 C 390.773438 487.257812 391.019531 487.585938 391.308594 487.875 C 390.855469 488.203125 390.363281 488.574219 389.871094 488.902344 C 387.652344 490.628906 386.011719 492.519531 384.941406 494.65625 C 383.710938 497.042969 383.175781 499.714844 383.382812 502.59375 C 383.546875 505.015625 384.203125 507.277344 385.351562 509.25 Z M 395.125 476.734375 C 395.332031 474.925781 396.152344 473.609375 397.753906 472.828125 C 399.476562 472.007812 401.242188 472.007812 402.925781 472.828125 C 404.730469 473.691406 405.554688 475.582031 405.554688 477.554688 C 405.554688 479.734375 404.609375 481.421875 402.925781 482.652344 C 401.898438 483.394531 400.75 484.011719 399.683594 484.710938 C 399.640625 484.75 399.476562 484.710938 399.4375 484.667969 C 398.246094 483.433594 397.011719 482.242188 396.109375 480.722656 C 395.371094 479.527344 394.960938 478.214844 395.125 476.734375 Z M 394.261719 495.5625 C 395.246094 494.78125 396.273438 494.082031 397.34375 493.34375 C 400.953125 497.496094 404.527344 501.5625 408.097656 505.675781 C 407.648438 506.210938 407.15625 506.660156 406.578125 507.03125 C 405.347656 507.855469 403.953125 508.304688 402.515625 508.554688 C 400.789062 508.800781 399.105469 508.800781 397.425781 508.347656 C 395.535156 507.8125 393.933594 506.785156 392.867188 505.058594 C 391.308594 502.550781 391.101562 498.109375 394.261719 495.5625 Z M 394.261719 495.5625 " fill-opacity="1" fill-rule="nonzero"/></g><g clip-path="url(#id15)"><g clip-path="url(#id16)"><path fill="#39a2db" d="M 398.132812 517.679688 L 409.464844 515.949219 L 411.703125 530.589844 L 400.371094 532.320312 L 398.132812 517.679688 " fill-opacity="1" fill-rule="nonzero"/></g></g><g clip-path="url(#id17)"><g clip-path="url(#id18)"><path fill="#39a2db" d="M 401.160156 535.570312 L 408.664062 527.546875 L 412.851562 531.464844 L 405.347656 539.488281 L 401.160156 535.570312 " fill-opacity="1" fill-rule="nonzero"/></g></g><g clip-path="url(#id19)"><g clip-path="url(#id20)"><path fill="#39a2db" d="M 371.554688 499.863281 L 377.070312 497 L 381.910156 506.332031 L 376.394531 509.191406 L 371.554688 499.863281 " fill-opacity="1" fill-rule="nonzero"/></g></g><path stroke-linecap="butt" transform="matrix(0.933975, 2.133841, -2.1884, 0.957856, 373.149126, 501.025531)" fill="none" stroke-linejoin="miter" d="M 0.000594445 0.000568463 L 2.257962 0.0000891289 " stroke="#39a2db" stroke-width="1" stroke-opacity="1" stroke-miterlimit="4"/><g clip-path="url(#id21)"><g clip-path="url(#id22)"><path fill="#39a2db" d="M 382.355469 516.160156 L 386.078125 511.800781 L 392.253906 517.078125 L 388.53125 521.433594 L 382.355469 516.160156 " fill-opacity="1" fill-rule="nonzero"/></g></g><g clip-path="url(#id23)"><g clip-path="url(#id24)"><path fill="#39a2db" d="M 378.945312 509.355469 C 377.917969 510.382812 379.351562 513.480469 382.148438 516.277344 C 384.945312 519.074219 388.042969 520.507812 389.070312 519.480469 C 390.09375 518.457031 388.660156 515.355469 385.867188 512.5625 C 383.070312 509.765625 379.972656 508.332031 378.945312 509.355469 " fill-opacity="1" fill-rule="nonzero"/></g></g><g fill="#073944" fill-opacity="1"><g transform="translate(188.187861, 605.07678)"><g><path d="M 1.292969 0 L 3.960938 0 L 3.960938 -12.332031 L 4.007812 -12.332031 L 11.308594 0 L 14.714844 0 L 14.714844 -15.78125 L 12.019531 -15.78125 L 12.019531 -3.40625 L 11.976562 -3.40625 L 4.695312 -15.78125 L 1.292969 -15.78125 Z M 1.292969 0 "/></g></g></g><g fill="#073944" fill-opacity="1"><g transform="translate(212.758089, 605.07678)"><g><path d="M 9.328125 0.554688 C 14.535156 0.554688 17.941406 -2.78125 17.941406 -7.878906 C 17.941406 -12.976562 14.535156 -16.339844 9.328125 -16.339844 C 4.117188 -16.339844 0.734375 -12.976562 0.734375 -7.878906 C 0.734375 -2.78125 4.117188 0.554688 9.328125 0.554688 Z M 9.328125 -1.847656 C 5.808594 -1.847656 3.496094 -4.25 3.496094 -7.878906 C 3.496094 -11.507812 5.808594 -13.910156 9.328125 -13.910156 C 12.84375 -13.910156 15.160156 -11.507812 15.160156 -7.878906 C 15.160156 -4.25 12.84375 -1.847656 9.328125 -1.847656 Z M 9.328125 -1.847656 "/></g></g></g><g fill="#073944" fill-opacity="1"><g transform="translate(239.998754, 605.07678)"><g><path d="M 5.296875 0 L 8.058594 0 L 8.058594 -13.355469 L 13.066406 -13.355469 L 13.066406 -15.78125 L 0.265625 -15.78125 L 0.265625 -13.355469 L 5.296875 -13.355469 Z M 5.296875 0 "/></g></g></g><g fill="#073944" fill-opacity="1"><g transform="translate(261.920804, 605.07678)"><g><path d="M 1.292969 0 L 4.050781 0 L 4.050781 -7.035156 L 11.6875 -7.035156 L 11.6875 0 L 14.46875 0 L 14.46875 -15.78125 L 11.6875 -15.78125 L 11.6875 -9.347656 L 4.050781 -9.347656 L 4.050781 -15.78125 L 1.292969 -15.78125 Z M 1.292969 0 "/></g></g></g><g fill="#073944" fill-opacity="1"><g transform="translate(286.246243, 605.07678)"><g><path d="M 1.292969 0 L 4.050781 0 L 4.050781 -15.78125 L 1.292969 -15.78125 Z M 1.292969 0 "/></g></g></g><g fill="#073944" fill-opacity="1"><g transform="translate(300.156994, 605.07678)"><g><path d="M 1.292969 0 L 3.960938 0 L 3.960938 -12.332031 L 4.007812 -12.332031 L 11.308594 0 L 14.714844 0 L 14.714844 -15.78125 L 12.019531 -15.78125 L 12.019531 -3.40625 L 11.976562 -3.40625 L 4.695312 -15.78125 L 1.292969 -15.78125 Z M 1.292969 0 "/></g></g></g><g fill="#073944" fill-opacity="1"><g transform="translate(324.727216, 605.07678)"><g><path d="M 8.726562 0.535156 C 11.53125 0.535156 13.824219 -0.800781 15.023438 -3.003906 L 15.046875 -3.003906 L 15.3125 0 L 17.453125 0 L 17.453125 -8.816406 L 6.878906 -8.816406 L 6.878906 -6.832031 L 14.714844 -6.832031 C 14.667969 -3.941406 12.308594 -1.804688 9.28125 -1.804688 C 5.898438 -1.804688 3.496094 -4.339844 3.496094 -7.878906 C 3.496094 -11.417969 5.742188 -13.910156 8.902344 -13.910156 C 10.929688 -13.910156 12.710938 -12.597656 13.332031 -10.730469 L 15.914062 -11.375 C 15.023438 -14.289062 12.21875 -16.339844 8.925781 -16.339844 C 4.117188 -16.339844 0.734375 -12.820312 0.734375 -7.878906 C 0.734375 -2.960938 4.050781 0.535156 8.726562 0.535156 Z M 8.726562 0.535156 "/></g></g></g><g fill="#073944" fill-opacity="1"><g transform="translate(351.634078, 605.07678)"><g/></g></g><g fill="#073944" fill-opacity="1"><g transform="translate(365.72287, 605.07678)"><g><path d="M 1.292969 0 L 4.050781 0 L 4.050781 -15.78125 L 1.292969 -15.78125 Z M 1.292969 0 "/></g></g></g><g fill="#073944" fill-opacity="1"><g transform="translate(379.633621, 605.07678)"><g><path d="M 7.457031 0.554688 C 11.242188 0.554688 13.800781 -1.492188 13.800781 -4.585938 C 13.800781 -6.921875 12.21875 -8.371094 8.925781 -9.015625 L 6.523438 -9.503906 C 4.695312 -9.882812 3.917969 -10.550781 3.917969 -11.6875 C 3.917969 -13.089844 5.097656 -14.132812 6.96875 -14.132812 C 8.746094 -14.132812 10.082031 -12.976562 10.285156 -11.242188 L 12.84375 -11.820312 C 12.421875 -14.535156 10.0625 -16.339844 6.96875 -16.339844 C 3.539062 -16.339844 1.179688 -14.335938 1.179688 -11.375 C 1.179688 -9.082031 2.605469 -7.746094 5.71875 -7.101562 L 8.101562 -6.589844 C 10.195312 -6.144531 11.085938 -5.429688 11.085938 -4.230469 C 11.085938 -2.761719 9.726562 -1.648438 7.523438 -1.648438 C 5.097656 -1.648438 3.25 -3.160156 3.070312 -5.34375 L 0.46875 -4.851562 C 0.824219 -1.535156 3.695312 0.554688 7.457031 0.554688 Z M 7.457031 0.554688 "/></g></g></g><g fill="#073944" fill-opacity="1"><g transform="translate(402.40131, 605.07678)"><g/></g></g><g fill="#073944" fill-opacity="1"><g transform="translate(416.486809, 605.07678)"><g><path d="M 1.15625 0 L 12.753906 0 L 12.753906 -3.785156 L 5.855469 -3.785156 L 5.855469 -6.476562 L 11.640625 -6.476562 L 11.640625 -9.75 L 5.855469 -9.75 L 5.855469 -12.152344 L 12.53125 -12.152344 L 12.53125 -15.9375 L 1.15625 -15.9375 Z M 1.15625 0 "/></g></g></g><g fill="#073944" fill-opacity="1"><g transform="translate(438.297589, 605.07678)"><g><path d="M 5.699219 0 L 11.308594 0 L 16.960938 -15.9375 L 11.929688 -15.9375 L 8.523438 -4.074219 L 8.480469 -4.074219 L 5.074219 -15.9375 L 0.0429688 -15.9375 Z M 5.699219 0 "/></g></g></g><g fill="#073944" fill-opacity="1"><g transform="translate(463.869233, 605.07678)"><g><path d="M 1.15625 0 L 12.753906 0 L 12.753906 -3.785156 L 5.855469 -3.785156 L 5.855469 -6.476562 L 11.640625 -6.476562 L 11.640625 -9.75 L 5.855469 -9.75 L 5.855469 -12.152344 L 12.53125 -12.152344 L 12.53125 -15.9375 L 1.15625 -15.9375 Z M 1.15625 0 "/></g></g></g><g fill="#073944" fill-opacity="1"><g transform="translate(485.680014, 605.07678)"><g><path d="M 13.265625 0.355469 C 14.648438 0.355469 15.960938 -0.0898438 16.804688 -0.800781 L 16.050781 -2.984375 C 15.804688 -2.761719 15.449219 -2.558594 15.089844 -2.558594 C 14.648438 -2.558594 14.378906 -2.914062 14.246094 -3.359375 L 13.84375 -4.71875 C 13.578125 -5.609375 13.199219 -6.164062 12.398438 -6.457031 L 12.398438 -6.476562 C 14.601562 -7.167969 15.871094 -8.769531 15.871094 -10.816406 C 15.871094 -14.066406 13.535156 -15.9375 9.503906 -15.9375 L 1.15625 -15.9375 L 1.15625 0 L 6.03125 0 L 6.03125 -5.652344 L 7.613281 -5.652344 C 8.457031 -5.652344 8.949219 -4.984375 9.191406 -4.164062 L 9.726562 -2.359375 C 10.238281 -0.667969 11.53125 0.355469 13.265625 0.355469 Z M 6.03125 -8.746094 L 6.03125 -12.488281 L 8.769531 -12.488281 C 10.148438 -12.488281 11.019531 -11.796875 11.019531 -10.617188 C 11.019531 -9.460938 10.148438 -8.746094 8.769531 -8.746094 Z M 6.03125 -8.746094 "/></g></g></g><g fill="#073944" fill-opacity="1"><g transform="translate(511.229401, 605.07678)"><g/></g></g><g fill="#073944" fill-opacity="1"><g transform="translate(524.111746, 605.07678)"><g><path d="M 1.292969 0 L 11.398438 0 L 11.398438 -2.402344 L 4.050781 -2.402344 L 4.050781 -15.78125 L 1.292969 -15.78125 Z M 1.292969 0 "/></g></g></g><g fill="#073944" fill-opacity="1"><g transform="translate(544.364776, 605.07678)"><g><path d="M 9.328125 0.554688 C 14.535156 0.554688 17.941406 -2.78125 17.941406 -7.878906 C 17.941406 -12.976562 14.535156 -16.339844 9.328125 -16.339844 C 4.117188 -16.339844 0.734375 -12.976562 0.734375 -7.878906 C 0.734375 -2.78125 4.117188 0.554688 9.328125 0.554688 Z M 9.328125 -1.847656 C 5.808594 -1.847656 3.496094 -4.25 3.496094 -7.878906 C 3.496094 -11.507812 5.808594 -13.910156 9.328125 -13.910156 C 12.84375 -13.910156 15.160156 -11.507812 15.160156 -7.878906 C 15.160156 -4.25 12.84375 -1.847656 9.328125 -1.847656 Z M 9.328125 -1.847656 "/></g></g></g><g fill="#073944" fill-opacity="1"><g transform="translate(571.605441, 605.07678)"><g><path d="M 7.457031 0.554688 C 11.242188 0.554688 13.800781 -1.492188 13.800781 -4.585938 C 13.800781 -6.921875 12.21875 -8.371094 8.925781 -9.015625 L 6.523438 -9.503906 C 4.695312 -9.882812 3.917969 -10.550781 3.917969 -11.6875 C 3.917969 -13.089844 5.097656 -14.132812 6.96875 -14.132812 C 8.746094 -14.132812 10.082031 -12.976562 10.285156 -11.242188 L 12.84375 -11.820312 C 12.421875 -14.535156 10.0625 -16.339844 6.96875 -16.339844 C 3.539062 -16.339844 1.179688 -14.335938 1.179688 -11.375 C 1.179688 -9.082031 2.605469 -7.746094 5.71875 -7.101562 L 8.101562 -6.589844 C 10.195312 -6.144531 11.085938 -5.429688 11.085938 -4.230469 C 11.085938 -2.761719 9.726562 -1.648438 7.523438 -1.648438 C 5.097656 -1.648438 3.25 -3.160156 3.070312 -5.34375 L 0.46875 -4.851562 C 0.824219 -1.535156 3.695312 0.554688 7.457031 0.554688 Z M 7.457031 0.554688 "/></g></g></g><g fill="#073944" fill-opacity="1"><g transform="translate(594.37313, 605.07678)"><g><path d="M 5.296875 0 L 8.058594 0 L 8.058594 -13.355469 L 13.066406 -13.355469 L 13.066406 -15.78125 L 0.265625 -15.78125 L 0.265625 -13.355469 L 5.296875 -13.355469 Z M 5.296875 0 "/></g></g></g><g fill="#073944" fill-opacity="1"><g transform="translate(616.291309, 605.07678)"><g/></g></g></svg>