<svg xmlns="http://www.w3.org/2000/svg" xmlns:xlink="http://www.w3.org/1999/xlink" width="500" zoomAndPan="magnify" viewBox="0 0 375 374.999991" height="500" preserveAspectRatio="xMidYMid meet" version="1.0"><defs><g/><clipPath id="id1"><path d="M 258 85.890625 L 319 85.890625 L 319 157 L 258 157 Z M 258 85.890625 " clip-rule="nonzero"/></clipPath><clipPath id="id2"><path d="M 165.726562 208 L 211 208 L 211 260.914062 L 165.726562 260.914062 Z M 165.726562 208 " clip-rule="nonzero"/></clipPath><clipPath id="id3"><path d="M 168 114 L 322.71875 114 L 322.71875 234 L 168 234 Z M 168 114 " clip-rule="nonzero"/></clipPath><clipPath id="id4"><path d="M 56 85.890625 L 117 85.890625 L 117 157 L 56 157 Z M 56 85.890625 " clip-rule="nonzero"/></clipPath><clipPath id="id5"><path d="M 164 208 L 209.261719 208 L 209.261719 260.914062 L 164 260.914062 Z M 164 208 " clip-rule="nonzero"/></clipPath><clipPath id="id6"><path d="M 52.214844 114 L 207 114 L 207 234 L 52.214844 234 Z M 52.214844 114 " clip-rule="nonzero"/></clipPath><clipPath id="id7"><path d="M 171.539062 215.191406 L 203.703125 215.191406 L 203.703125 245.464844 L 171.539062 245.464844 Z M 171.539062 215.191406 " clip-rule="nonzero"/></clipPath><clipPath id="id8"><path d="M 176.578125 218.714844 L 198.339844 218.714844 L 198.339844 245.207031 L 176.578125 245.207031 Z M 176.578125 218.714844 " clip-rule="nonzero"/></clipPath></defs><rect x="-37.5" width="450" fill="#ffffff" y="-37.499999" height="449.999989" fill-opacity="1"/><rect x="-37.5" width="450" fill="#39a2db" y="-37.499999" height="449.999989" fill-opacity="1"/><rect x="-37.5" width="450" fill="#ffffff" y="-37.499999" height="449.999989" fill-opacity="1"/><rect x="-37.5" width="450" fill="#39a2db" y="-37.499999" height="449.999989" fill-opacity="1"/><g fill="#073944" fill-opacity="1"><g transform="translate(79.558517, 267.32966)"><g><path d="M 1.507812 0 L 15.433594 0 L 15.433594 -5.394531 L 7.859375 -5.394531 L 7.859375 -20.769531 L 1.507812 -20.769531 Z M 1.507812 0 "/></g></g></g><g fill="#073944" fill-opacity="1"><g transform="translate(94.901149, 267.32966)"><g><path d="M 12.472656 0.726562 C 19.550781 0.726562 24.164062 -3.683594 24.164062 -10.382812 C 24.164062 -17.113281 19.550781 -21.492188 12.472656 -21.492188 C 5.425781 -21.492188 0.78125 -17.113281 0.78125 -10.382812 C 0.78125 -3.683594 5.425781 0.726562 12.472656 0.726562 Z M 12.472656 -4.671875 C 9.222656 -4.671875 7.136719 -6.933594 7.136719 -10.382812 C 7.136719 -13.867188 9.222656 -16.128906 12.472656 -16.128906 C 15.722656 -16.128906 17.808594 -13.867188 17.808594 -10.382812 C 17.808594 -6.933594 15.722656 -4.671875 12.472656 -4.671875 Z M 12.472656 -4.671875 "/></g></g></g><g fill="#073944" fill-opacity="1"><g transform="translate(119.263871, 267.32966)"><g><path d="M 10.355469 0.726562 C 16.070312 0.726562 20.160156 -1.796875 20.160156 -6.441406 C 20.160156 -10.125 17.898438 -12.097656 12.792969 -12.820312 L 10.09375 -13.257812 C 8.152344 -13.574219 7.308594 -14.097656 7.308594 -15.082031 C 7.308594 -16.214844 8.355469 -17 9.949219 -17 C 11.660156 -17 12.964844 -15.953125 13.199219 -14.242188 L 18.765625 -15.460938 C 18.273438 -19.144531 14.675781 -21.492188 10.09375 -21.492188 C 4.960938 -21.492188 1.132812 -18.882812 1.132812 -14.589844 C 1.132812 -11.050781 3.335938 -9.136719 8.382812 -8.265625 L 11.050781 -7.832031 C 13.140625 -7.425781 14.039062 -6.84375 14.039062 -5.859375 C 14.039062 -4.613281 12.734375 -3.769531 10.675781 -3.769531 C 8.355469 -3.769531 6.671875 -5.046875 6.351562 -7.164062 L 0.667969 -6.089844 C 1.132812 -1.480469 5.019531 0.726562 10.355469 0.726562 Z M 10.355469 0.726562 "/></g></g></g><g fill="#073944" fill-opacity="1"><g transform="translate(139.189053, 267.32966)"><g><path d="M 6.324219 0 L 12.675781 0 L 12.675781 -15.402344 L 18.507812 -15.402344 L 18.507812 -20.769531 L 0.523438 -20.769531 L 0.523438 -15.402344 L 6.324219 -15.402344 Z M 6.324219 0 "/></g></g></g><g clip-path="url(#id1)"><path fill="#073944" d="M 310.023438 137.464844 L 292.308594 155.210938 C 291.34375 156.179688 290.0625 156.710938 288.699219 156.710938 C 287.332031 156.710938 286.050781 156.179688 285.085938 155.210938 L 267.371094 137.464844 C 266.589844 136.6875 265.847656 135.851562 265.164062 134.992188 C 260.890625 129.664062 258.539062 122.957031 258.539062 116.105469 C 258.539062 99.449219 272.070312 85.898438 288.699219 85.898438 C 305.328125 85.898438 318.855469 99.449219 318.855469 116.105469 C 318.855469 122.957031 316.503906 129.667969 312.234375 134.988281 C 311.546875 135.855469 310.804688 136.6875 310.023438 137.464844 Z M 288.699219 89.828125 C 274.234375 89.828125 262.464844 101.617188 262.460938 116.105469 C 262.460938 122.152344 264.453125 127.832031 268.222656 132.535156 C 268.820312 133.285156 269.46875 134.011719 270.144531 134.6875 L 287.855469 152.429688 C 288.308594 152.882812 289.089844 152.878906 289.535156 152.433594 L 307.25 134.6875 C 307.925781 134.011719 308.574219 133.289062 309.171875 132.535156 C 312.941406 127.835938 314.933594 122.152344 314.933594 116.105469 C 314.933594 101.617188 303.164062 89.828125 288.699219 89.828125 Z M 288.699219 89.828125 " fill-opacity="1" fill-rule="nonzero"/></g><path fill="#073944" d="M 288.699219 131.800781 C 280.058594 131.800781 273.03125 124.761719 273.03125 116.105469 C 273.03125 107.453125 280.058594 100.410156 288.699219 100.410156 C 297.335938 100.410156 304.367188 107.453125 304.367188 116.105469 C 304.367188 124.761719 297.339844 131.800781 288.699219 131.800781 Z M 288.699219 104.339844 C 282.222656 104.339844 276.953125 109.617188 276.953125 116.105469 C 276.953125 122.59375 282.222656 127.871094 288.699219 127.871094 C 295.175781 127.871094 300.445312 122.59375 300.445312 116.105469 C 300.445312 109.617188 295.175781 104.339844 288.699219 104.339844 Z M 288.699219 104.339844 " fill-opacity="1" fill-rule="nonzero"/><g clip-path="url(#id2)"><path fill="#073944" d="M 188.082031 208.851562 C 200.351562 208.851562 210.332031 218.851562 210.332031 231.140625 C 210.332031 236.195312 208.59375 241.144531 205.449219 245.070312 C 204.941406 245.707031 204.390625 246.324219 203.816406 246.898438 L 191.070312 259.667969 C 190.269531 260.464844 189.207031 260.90625 188.082031 260.90625 C 186.953125 260.90625 185.894531 260.464844 185.09375 259.667969 L 172.347656 246.898438 C 171.769531 246.320312 171.222656 245.707031 170.71875 245.074219 C 167.566406 241.144531 165.832031 236.195312 165.832031 231.136719 C 165.832031 218.851562 175.8125 208.851562 188.082031 208.851562 Z M 173.78125 242.617188 C 174.195312 243.140625 174.648438 243.644531 175.121094 244.121094 L 187.863281 256.886719 C 187.9375 256.960938 188.023438 256.976562 188.082031 256.976562 C 188.140625 256.976562 188.222656 256.960938 188.296875 256.886719 L 201.042969 244.117188 C 201.515625 243.644531 201.964844 243.140625 202.386719 242.613281 C 205.015625 239.332031 206.40625 235.363281 206.40625 231.136719 C 206.40625 221.015625 198.1875 212.78125 188.082031 212.78125 C 177.976562 212.78125 169.753906 221.015625 169.753906 231.136719 C 169.753906 235.363281 171.144531 239.332031 173.78125 242.617188 Z M 173.78125 242.617188 " fill-opacity="1" fill-rule="nonzero"/></g><path fill="#073944" d="M 188.082031 219.292969 C 194.601562 219.292969 199.90625 224.609375 199.90625 231.140625 C 199.90625 237.667969 194.601562 242.984375 188.082031 242.984375 C 181.5625 242.984375 176.257812 237.667969 176.257812 231.140625 C 176.257812 224.609375 181.5625 219.292969 188.082031 219.292969 Z M 188.082031 239.054688 C 192.4375 239.054688 195.984375 235.503906 195.984375 231.136719 C 195.984375 226.773438 192.4375 223.222656 188.082031 223.222656 C 183.722656 223.222656 180.179688 226.773438 180.179688 231.136719 C 180.179688 235.503906 183.726562 239.054688 188.082031 239.054688 Z M 188.082031 239.054688 " fill-opacity="1" fill-rule="nonzero"/><g clip-path="url(#id3)"><path fill="#eff4f7" d="M 217.667969 229.175781 L 295.972656 229.175781 C 308.53125 229.175781 318.75 218.9375 318.75 206.355469 C 318.75 193.773438 308.53125 183.539062 295.972656 183.539062 L 202.792969 183.539062 C 183.695312 183.539062 168.152344 167.972656 168.152344 148.839844 C 168.152344 129.707031 183.691406 114.140625 202.792969 114.140625 L 251.992188 114.140625 C 253.074219 114.140625 253.953125 115.019531 253.953125 116.105469 C 253.953125 117.191406 253.074219 118.070312 251.992188 118.070312 L 202.792969 118.070312 C 185.855469 118.070312 172.078125 131.875 172.078125 148.839844 C 172.078125 165.804688 185.855469 179.609375 202.792969 179.609375 L 295.972656 179.609375 C 310.695312 179.609375 322.675781 191.609375 322.675781 206.355469 C 322.675781 221.105469 310.695312 233.105469 295.972656 233.105469 L 217.667969 233.105469 C 216.585938 233.105469 215.707031 232.222656 215.707031 231.140625 C 215.707031 230.054688 216.585938 229.175781 217.667969 229.175781 Z M 217.667969 229.175781 " fill-opacity="1" fill-rule="nonzero"/></g><g clip-path="url(#id4)"><path fill="#073944" d="M 64.96875 137.464844 L 82.683594 155.210938 C 83.648438 156.179688 84.929688 156.710938 86.292969 156.710938 C 87.65625 156.710938 88.941406 156.179688 89.90625 155.210938 L 107.621094 137.464844 C 108.398438 136.6875 109.144531 135.851562 109.828125 134.992188 C 114.101562 129.664062 116.453125 122.957031 116.453125 116.105469 C 116.453125 99.449219 102.921875 85.898438 86.292969 85.898438 C 69.664062 85.898438 56.136719 99.449219 56.136719 116.105469 C 56.136719 122.957031 58.488281 129.667969 62.753906 134.988281 C 63.445312 135.855469 64.1875 136.6875 64.96875 137.464844 Z M 86.292969 89.828125 C 100.757812 89.828125 112.527344 101.617188 112.53125 116.105469 C 112.53125 122.152344 110.539062 127.832031 106.765625 132.535156 C 106.167969 133.285156 105.523438 134.011719 104.847656 134.6875 L 87.132812 152.429688 C 86.683594 152.882812 85.902344 152.878906 85.453125 152.433594 L 67.742188 134.6875 C 67.066406 134.011719 66.417969 133.289062 65.816406 132.535156 C 62.050781 127.835938 60.058594 122.152344 60.058594 116.105469 C 60.058594 101.617188 71.828125 89.828125 86.292969 89.828125 Z M 86.292969 89.828125 " fill-opacity="1" fill-rule="nonzero"/></g><path fill="#073944" d="M 86.292969 131.800781 C 94.933594 131.800781 101.960938 124.761719 101.960938 116.105469 C 101.960938 107.453125 94.933594 100.410156 86.292969 100.410156 C 77.652344 100.410156 70.625 107.453125 70.625 116.105469 C 70.625 124.761719 77.652344 131.800781 86.292969 131.800781 Z M 86.292969 104.339844 C 92.769531 104.339844 98.039062 109.617188 98.039062 116.105469 C 98.039062 122.59375 92.769531 127.871094 86.292969 127.871094 C 79.816406 127.871094 74.546875 122.59375 74.546875 116.105469 C 74.546875 109.617188 79.816406 104.339844 86.292969 104.339844 Z M 86.292969 104.339844 " fill-opacity="1" fill-rule="nonzero"/><g clip-path="url(#id5)"><path fill="#073944" d="M 186.910156 208.851562 C 174.640625 208.851562 164.660156 218.851562 164.660156 231.140625 C 164.660156 236.195312 166.394531 241.144531 169.542969 245.070312 C 170.050781 245.707031 170.601562 246.324219 171.175781 246.898438 L 183.921875 259.667969 C 184.722656 260.464844 185.78125 260.90625 186.910156 260.90625 C 188.039062 260.90625 189.097656 260.464844 189.898438 259.667969 L 202.644531 246.898438 C 203.222656 246.320312 203.769531 245.707031 204.273438 245.074219 C 207.425781 241.144531 209.160156 236.195312 209.160156 231.136719 C 209.160156 218.851562 199.179688 208.851562 186.910156 208.851562 Z M 201.210938 242.617188 C 200.796875 243.140625 200.34375 243.644531 199.871094 244.121094 L 187.125 256.886719 C 187.050781 256.960938 186.96875 256.976562 186.910156 256.976562 C 186.851562 256.976562 186.769531 256.960938 186.695312 256.886719 L 173.949219 244.117188 C 173.476562 243.644531 173.027344 243.140625 172.605469 242.613281 C 169.972656 239.332031 168.582031 235.363281 168.582031 231.136719 C 168.582031 221.015625 176.804688 212.78125 186.910156 212.78125 C 197.015625 212.78125 205.238281 221.015625 205.238281 231.136719 C 205.238281 235.363281 203.847656 239.332031 201.210938 242.617188 Z M 201.210938 242.617188 " fill-opacity="1" fill-rule="nonzero"/></g><path fill="#073944" d="M 186.910156 219.292969 C 180.390625 219.292969 175.085938 224.609375 175.085938 231.140625 C 175.085938 237.667969 180.390625 242.984375 186.910156 242.984375 C 193.429688 242.984375 198.734375 237.667969 198.734375 231.140625 C 198.734375 224.609375 193.429688 219.292969 186.910156 219.292969 Z M 186.910156 239.054688 C 182.554688 239.054688 179.007812 235.503906 179.007812 231.136719 C 179.007812 226.773438 182.554688 223.222656 186.910156 223.222656 C 191.265625 223.222656 194.8125 226.773438 194.8125 231.136719 C 194.8125 235.503906 191.265625 239.054688 186.910156 239.054688 Z M 186.910156 239.054688 " fill-opacity="1" fill-rule="nonzero"/><g clip-path="url(#id6)"><path fill="#eff4f7" d="M 157.324219 229.175781 L 79.019531 229.175781 C 66.460938 229.175781 56.238281 218.9375 56.238281 206.355469 C 56.238281 193.773438 66.460938 183.539062 79.019531 183.539062 L 172.195312 183.539062 C 191.296875 183.539062 206.839844 167.972656 206.839844 148.839844 C 206.839844 129.707031 191.296875 114.140625 172.195312 114.140625 L 123 114.140625 C 121.917969 114.140625 121.039062 115.019531 121.039062 116.105469 C 121.039062 117.191406 121.917969 118.070312 123 118.070312 L 172.195312 118.070312 C 189.136719 118.070312 202.914062 131.875 202.914062 148.839844 C 202.914062 165.804688 189.136719 179.609375 172.195312 179.609375 L 79.019531 179.609375 C 64.296875 179.609375 52.316406 191.609375 52.316406 206.355469 C 52.316406 221.105469 64.296875 233.105469 79.019531 233.105469 L 157.324219 233.105469 C 158.40625 233.105469 159.285156 232.222656 159.285156 231.140625 C 159.285156 230.054688 158.40625 229.175781 157.324219 229.175781 Z M 157.324219 229.175781 " fill-opacity="1" fill-rule="nonzero"/></g><g clip-path="url(#id7)"><path fill="#39a2db" d="M 187.621094 215.191406 C 178.738281 215.191406 171.539062 221.96875 171.539062 230.328125 C 171.539062 238.6875 178.738281 245.464844 187.621094 245.464844 C 196.503906 245.464844 203.703125 238.6875 203.703125 230.328125 C 203.703125 221.96875 196.503906 215.191406 187.621094 215.191406 " fill-opacity="1" fill-rule="nonzero"/></g><g clip-path="url(#id8)"><path fill="#073944" d="M 177.714844 241.347656 C 178.566406 242.824219 179.867188 243.933594 181.535156 244.589844 C 182.570312 245 183.667969 245.207031 184.828125 245.207031 C 185.296875 245.207031 185.78125 245.164062 186.269531 245.105469 C 188.140625 244.859375 189.828125 244.117188 191.3125 242.90625 C 191.332031 242.886719 191.371094 242.867188 191.394531 242.84375 C 191.394531 242.84375 192.308594 243.914062 192.652344 244.34375 C 192.796875 244.527344 192.976562 244.613281 193.203125 244.613281 C 194.15625 244.613281 197.226562 244.613281 197.226562 244.613281 C 197.753906 244.613281 197.957031 244.324219 198 244.199219 C 198.058594 244.078125 198.140625 243.726562 197.796875 243.316406 L 194.277344 239.25 C 194.6875 238.511719 194.992188 237.710938 195.214844 236.765625 C 195.398438 236.027344 195.5 235.246094 195.578125 234.261719 L 197.0625 234.261719 C 197.734375 234.261719 198.285156 233.707031 198.285156 233.03125 L 198.285156 231.304688 C 198.285156 230.625 197.734375 230.074219 197.0625 230.074219 L 192.671875 230.074219 C 192.003906 230.074219 191.453125 230.625 191.453125 231.304688 C 191.453125 231.839844 191.414062 232.515625 191.414062 232.925781 C 191.414062 234.117188 191.089844 235.597656 191.066406 235.65625 L 187.796875 231.941406 C 188.546875 231.46875 189.441406 230.832031 190.195312 229.992188 C 191.65625 228.367188 192.226562 226.417969 191.859375 224.179688 C 191.554688 222.167969 190.4375 220.667969 188.546875 219.722656 C 186.902344 218.902344 185.070312 218.714844 183.160156 219.167969 C 181.675781 219.539062 180.476562 220.339844 179.605469 221.507812 C 178.933594 222.390625 178.546875 223.460938 178.40625 224.652344 C 178.28125 225.882812 178.425781 226.992188 178.851562 228 C 179.15625 228.695312 179.582031 229.375 180.253906 230.195312 C 180.394531 230.359375 180.519531 230.523438 180.660156 230.667969 C 180.4375 230.832031 180.191406 231.015625 179.949219 231.179688 C 178.851562 232.042969 178.039062 232.988281 177.511719 234.054688 C 176.898438 235.246094 176.636719 236.582031 176.738281 238.019531 C 176.820312 239.230469 177.144531 240.359375 177.714844 241.347656 Z M 182.550781 225.101562 C 182.652344 224.199219 183.058594 223.542969 183.851562 223.152344 C 184.707031 222.742188 185.578125 222.742188 186.414062 223.152344 C 187.308594 223.582031 187.714844 224.527344 187.714844 225.511719 C 187.714844 226.601562 187.246094 227.445312 186.414062 228.058594 C 185.90625 228.429688 185.335938 228.738281 184.808594 229.085938 C 184.785156 229.105469 184.707031 229.085938 184.683594 229.066406 C 184.09375 228.449219 183.484375 227.855469 183.039062 227.09375 C 182.671875 226.5 182.46875 225.84375 182.550781 225.101562 Z M 182.125 234.507812 C 182.613281 234.117188 183.121094 233.769531 183.648438 233.398438 C 185.4375 235.472656 187.207031 237.507812 188.972656 239.558594 C 188.75 239.828125 188.507812 240.050781 188.222656 240.238281 C 187.613281 240.648438 186.921875 240.875 186.210938 240.996094 C 185.355469 241.121094 184.523438 241.121094 183.6875 240.894531 C 182.753906 240.628906 181.960938 240.113281 181.433594 239.25 C 180.660156 238 180.558594 235.78125 182.125 234.507812 Z M 182.125 234.507812 " fill-opacity="1" fill-rule="nonzero"/></g><g fill="#073944" fill-opacity="1"><g transform="translate(89.187262, 285.915062)"><g><path d="M 0.585938 0 L 1.796875 0 L 1.796875 -5.589844 L 1.816406 -5.589844 L 5.125 0 L 6.671875 0 L 6.671875 -7.15625 L 5.449219 -7.15625 L 5.449219 -1.542969 L 5.429688 -1.542969 L 2.128906 -7.15625 L 0.585938 -7.15625 Z M 0.585938 0 "/></g></g></g><g fill="#073944" fill-opacity="1"><g transform="translate(100.328543, 285.915062)"><g><path d="M 4.226562 0.253906 C 6.589844 0.253906 8.132812 -1.261719 8.132812 -3.574219 C 8.132812 -5.882812 6.589844 -7.40625 4.226562 -7.40625 C 1.867188 -7.40625 0.332031 -5.882812 0.332031 -3.574219 C 0.332031 -1.261719 1.867188 0.253906 4.226562 0.253906 Z M 4.226562 -0.835938 C 2.632812 -0.835938 1.585938 -1.925781 1.585938 -3.574219 C 1.585938 -5.21875 2.632812 -6.308594 4.226562 -6.308594 C 5.824219 -6.308594 6.871094 -5.21875 6.871094 -3.574219 C 6.871094 -1.925781 5.824219 -0.835938 4.226562 -0.835938 Z M 4.226562 -0.835938 "/></g></g></g><g fill="#073944" fill-opacity="1"><g transform="translate(112.680828, 285.915062)"><g><path d="M 2.402344 0 L 3.652344 0 L 3.652344 -6.054688 L 5.921875 -6.054688 L 5.921875 -7.15625 L 0.121094 -7.15625 L 0.121094 -6.054688 L 2.402344 -6.054688 Z M 2.402344 0 "/></g></g></g><g fill="#073944" fill-opacity="1"><g transform="translate(122.621191, 285.915062)"><g><path d="M 0.585938 0 L 1.835938 0 L 1.835938 -3.1875 L 5.296875 -3.1875 L 5.296875 0 L 6.558594 0 L 6.558594 -7.15625 L 5.296875 -7.15625 L 5.296875 -4.238281 L 1.835938 -4.238281 L 1.835938 -7.15625 L 0.585938 -7.15625 Z M 0.585938 0 "/></g></g></g><g fill="#073944" fill-opacity="1"><g transform="translate(133.651459, 285.915062)"><g><path d="M 0.585938 0 L 1.835938 0 L 1.835938 -7.15625 L 0.585938 -7.15625 Z M 0.585938 0 "/></g></g></g><g fill="#073944" fill-opacity="1"><g transform="translate(139.958781, 285.915062)"><g><path d="M 0.585938 0 L 1.796875 0 L 1.796875 -5.589844 L 1.816406 -5.589844 L 5.125 0 L 6.671875 0 L 6.671875 -7.15625 L 5.449219 -7.15625 L 5.449219 -1.542969 L 5.429688 -1.542969 L 2.128906 -7.15625 L 0.585938 -7.15625 Z M 0.585938 0 "/></g></g></g><g fill="#073944" fill-opacity="1"><g transform="translate(151.100064, 285.915062)"><g><path d="M 3.957031 0.242188 C 5.226562 0.242188 6.265625 -0.363281 6.8125 -1.363281 L 6.820312 -1.363281 L 6.941406 0 L 7.910156 0 L 7.910156 -3.996094 L 3.117188 -3.996094 L 3.117188 -3.097656 L 6.671875 -3.097656 C 6.652344 -1.785156 5.582031 -0.816406 4.207031 -0.816406 C 2.675781 -0.816406 1.585938 -1.96875 1.585938 -3.574219 C 1.585938 -5.175781 2.605469 -6.308594 4.035156 -6.308594 C 4.953125 -6.308594 5.761719 -5.710938 6.042969 -4.863281 L 7.214844 -5.15625 C 6.8125 -6.480469 5.539062 -7.40625 4.046875 -7.40625 C 1.867188 -7.40625 0.332031 -5.8125 0.332031 -3.574219 C 0.332031 -1.34375 1.835938 0.242188 3.957031 0.242188 Z M 3.957031 0.242188 "/></g></g></g><g fill="#073944" fill-opacity="1"><g transform="translate(163.300982, 285.915062)"><g/></g></g><g fill="#073944" fill-opacity="1"><g transform="translate(169.689047, 285.915062)"><g><path d="M 0.585938 0 L 1.835938 0 L 1.835938 -7.15625 L 0.585938 -7.15625 Z M 0.585938 0 "/></g></g></g><g fill="#073944" fill-opacity="1"><g transform="translate(175.996372, 285.915062)"><g><path d="M 3.378906 0.253906 C 5.097656 0.253906 6.257812 -0.675781 6.257812 -2.078125 C 6.257812 -3.136719 5.539062 -3.792969 4.046875 -4.085938 L 2.957031 -4.308594 C 2.128906 -4.480469 1.777344 -4.785156 1.777344 -5.296875 C 1.777344 -5.933594 2.3125 -6.410156 3.160156 -6.410156 C 3.964844 -6.410156 4.570312 -5.882812 4.664062 -5.097656 L 5.824219 -5.359375 C 5.632812 -6.589844 4.5625 -7.40625 3.160156 -7.40625 C 1.605469 -7.40625 0.535156 -6.5 0.535156 -5.15625 C 0.535156 -4.117188 1.179688 -3.511719 2.59375 -3.21875 L 3.671875 -2.988281 C 4.621094 -2.785156 5.027344 -2.460938 5.027344 -1.917969 C 5.027344 -1.25 4.410156 -0.746094 3.410156 -0.746094 C 2.3125 -0.746094 1.472656 -1.433594 1.394531 -2.421875 L 0.210938 -2.199219 C 0.375 -0.695312 1.675781 0.253906 3.378906 0.253906 Z M 3.378906 0.253906 "/></g></g></g><g fill="#073944" fill-opacity="1"><g transform="translate(186.320215, 285.915062)"><g/></g></g><g fill="#073944" fill-opacity="1"><g transform="translate(192.705913, 285.915062)"><g><path d="M 0.523438 0 L 5.78125 0 L 5.78125 -1.714844 L 2.652344 -1.714844 L 2.652344 -2.9375 L 5.277344 -2.9375 L 5.277344 -4.421875 L 2.652344 -4.421875 L 2.652344 -5.511719 L 5.679688 -5.511719 L 5.679688 -7.226562 L 0.523438 -7.226562 Z M 0.523438 0 "/></g></g></g><g fill="#073944" fill-opacity="1"><g transform="translate(202.595806, 285.915062)"><g><path d="M 2.582031 0 L 5.125 0 L 7.691406 -7.226562 L 5.410156 -7.226562 L 3.863281 -1.847656 L 3.84375 -1.847656 L 2.300781 -7.226562 L 0.0195312 -7.226562 Z M 2.582031 0 "/></g></g></g><g fill="#073944" fill-opacity="1"><g transform="translate(214.191206, 285.915062)"><g><path d="M 0.523438 0 L 5.78125 0 L 5.78125 -1.714844 L 2.652344 -1.714844 L 2.652344 -2.9375 L 5.277344 -2.9375 L 5.277344 -4.421875 L 2.652344 -4.421875 L 2.652344 -5.511719 L 5.679688 -5.511719 L 5.679688 -7.226562 L 0.523438 -7.226562 Z M 0.523438 0 "/></g></g></g><g fill="#073944" fill-opacity="1"><g transform="translate(224.0811, 285.915062)"><g><path d="M 6.015625 0.160156 C 6.640625 0.160156 7.234375 -0.0390625 7.621094 -0.363281 L 7.277344 -1.351562 C 7.164062 -1.25 7.003906 -1.160156 6.84375 -1.160156 C 6.640625 -1.160156 6.519531 -1.320312 6.457031 -1.523438 L 6.277344 -2.140625 C 6.15625 -2.542969 5.984375 -2.796875 5.621094 -2.925781 L 5.621094 -2.9375 C 6.621094 -3.25 7.195312 -3.976562 7.195312 -4.90625 C 7.195312 -6.378906 6.136719 -7.226562 4.308594 -7.226562 L 0.523438 -7.226562 L 0.523438 0 L 2.734375 0 L 2.734375 -2.5625 L 3.453125 -2.5625 C 3.835938 -2.5625 4.058594 -2.261719 4.167969 -1.886719 L 4.410156 -1.070312 C 4.640625 -0.304688 5.226562 0.160156 6.015625 0.160156 Z M 2.734375 -3.964844 L 2.734375 -5.660156 L 3.976562 -5.660156 C 4.601562 -5.660156 4.996094 -5.347656 4.996094 -4.8125 C 4.996094 -4.289062 4.601562 -3.964844 3.976562 -3.964844 Z M 2.734375 -3.964844 "/></g></g></g><g fill="#073944" fill-opacity="1"><g transform="translate(235.666414, 285.915062)"><g/></g></g><g fill="#073944" fill-opacity="1"><g transform="translate(241.508688, 285.915062)"><g><path d="M 0.585938 0 L 5.167969 0 L 5.167969 -1.089844 L 1.835938 -1.089844 L 1.835938 -7.15625 L 0.585938 -7.15625 Z M 0.585938 0 "/></g></g></g><g fill="#073944" fill-opacity="1"><g transform="translate(250.692166, 285.915062)"><g><path d="M 4.226562 0.253906 C 6.589844 0.253906 8.132812 -1.261719 8.132812 -3.574219 C 8.132812 -5.882812 6.589844 -7.40625 4.226562 -7.40625 C 1.867188 -7.40625 0.332031 -5.882812 0.332031 -3.574219 C 0.332031 -1.261719 1.867188 0.253906 4.226562 0.253906 Z M 4.226562 -0.835938 C 2.632812 -0.835938 1.585938 -1.925781 1.585938 -3.574219 C 1.585938 -5.21875 2.632812 -6.308594 4.226562 -6.308594 C 5.824219 -6.308594 6.871094 -5.21875 6.871094 -3.574219 C 6.871094 -1.925781 5.824219 -0.835938 4.226562 -0.835938 Z M 4.226562 -0.835938 "/></g></g></g><g fill="#073944" fill-opacity="1"><g transform="translate(263.044451, 285.915062)"><g><path d="M 3.378906 0.253906 C 5.097656 0.253906 6.257812 -0.675781 6.257812 -2.078125 C 6.257812 -3.136719 5.539062 -3.792969 4.046875 -4.085938 L 2.957031 -4.308594 C 2.128906 -4.480469 1.777344 -4.785156 1.777344 -5.296875 C 1.777344 -5.933594 2.3125 -6.410156 3.160156 -6.410156 C 3.964844 -6.410156 4.570312 -5.882812 4.664062 -5.097656 L 5.824219 -5.359375 C 5.632812 -6.589844 4.5625 -7.40625 3.160156 -7.40625 C 1.605469 -7.40625 0.535156 -6.5 0.535156 -5.15625 C 0.535156 -4.117188 1.179688 -3.511719 2.59375 -3.21875 L 3.671875 -2.988281 C 4.621094 -2.785156 5.027344 -2.460938 5.027344 -1.917969 C 5.027344 -1.25 4.410156 -0.746094 3.410156 -0.746094 C 2.3125 -0.746094 1.472656 -1.433594 1.394531 -2.421875 L 0.210938 -2.199219 C 0.375 -0.695312 1.675781 0.253906 3.378906 0.253906 Z M 3.378906 0.253906 "/></g></g></g><g fill="#073944" fill-opacity="1"><g transform="translate(273.368293, 285.915062)"><g><path d="M 2.402344 0 L 3.652344 0 L 3.652344 -6.054688 L 5.921875 -6.054688 L 5.921875 -7.15625 L 0.121094 -7.15625 L 0.121094 -6.054688 L 2.402344 -6.054688 Z M 2.402344 0 "/></g></g></g><g fill="#073944" fill-opacity="1"><g transform="translate(283.307731, 285.915062)"><g/></g></g><g fill="#073944" fill-opacity="1"><g transform="translate(216.106834, 264.512384)"><g><path d="M 1.507812 0 L 7.859375 0 L 7.859375 -7.046875 L 14.589844 -7.046875 L 14.589844 -11.746094 L 7.859375 -11.746094 L 7.859375 -15.402344 L 16.300781 -15.402344 L 16.300781 -20.769531 L 1.507812 -20.769531 Z M 1.507812 0 "/></g></g></g><g fill="#073944" fill-opacity="1"><g transform="translate(232.29057, 264.512384)"><g><path d="M 12.472656 0.726562 C 19.550781 0.726562 24.164062 -3.683594 24.164062 -10.382812 C 24.164062 -17.113281 19.550781 -21.492188 12.472656 -21.492188 C 5.425781 -21.492188 0.78125 -17.113281 0.78125 -10.382812 C 0.78125 -3.683594 5.425781 0.726562 12.472656 0.726562 Z M 12.472656 -4.671875 C 9.222656 -4.671875 7.136719 -6.933594 7.136719 -10.382812 C 7.136719 -13.867188 9.222656 -16.128906 12.472656 -16.128906 C 15.722656 -16.128906 17.808594 -13.867188 17.808594 -10.382812 C 17.808594 -6.933594 15.722656 -4.671875 12.472656 -4.671875 Z M 12.472656 -4.671875 "/></g></g></g><g fill="#073944" fill-opacity="1"><g transform="translate(256.653292, 264.512384)"><g><path d="M 11.167969 0.726562 C 17.375 0.726562 21 -2.550781 21 -8.121094 L 21 -20.769531 L 14.648438 -20.769531 L 14.648438 -8.355469 C 14.648438 -6.0625 13.371094 -4.671875 11.167969 -4.671875 C 8.964844 -4.671875 7.65625 -6.121094 7.65625 -8.355469 L 7.65625 -20.769531 L 1.335938 -20.769531 L 1.335938 -8.121094 C 1.335938 -2.550781 4.960938 0.726562 11.167969 0.726562 Z M 11.167969 0.726562 "/></g></g></g><g fill="#073944" fill-opacity="1"><g transform="translate(278.405694, 264.512384)"><g><path d="M 1.507812 0 L 7.398438 0 L 7.398438 -13.285156 L 7.453125 -13.285156 L 14.765625 0 L 21.957031 0 L 21.957031 -20.769531 L 16.070312 -20.769531 L 16.070312 -7.453125 L 16.011719 -7.453125 L 8.703125 -20.769531 L 1.507812 -20.769531 Z M 1.507812 0 "/></g></g></g><g fill="#073944" fill-opacity="1"><g transform="translate(301.289236, 264.512384)"><g><path d="M 1.507812 0 L 10.585938 0 C 17.898438 0 21.988281 -3.710938 21.988281 -10.382812 C 21.988281 -17.054688 17.898438 -20.769531 10.585938 -20.769531 L 1.507812 -20.769531 Z M 7.628906 -4.929688 L 7.628906 -15.835938 L 10.585938 -15.835938 C 13.835938 -15.835938 15.664062 -13.894531 15.664062 -10.382812 C 15.664062 -6.875 13.835938 -4.929688 10.585938 -4.929688 Z M 7.628906 -4.929688 "/></g></g></g></svg>